<?xml version="1.0" encoding="UTF-8"?><svg id="a" xmlns="http://www.w3.org/2000/svg" viewBox="0 0 50 53.33"><defs><style>.c{fill:#fff;}.d{fill:#2c3e50;}</style></defs><g><path class="c" d="m25,49.62c-4.04-3.49-19.5-17.48-19.5-26.88C5.5,11.99,14.25,3.24,25,3.24s19.5,8.75,19.5,19.5c0,9.4-15.46,23.39-19.5,26.88Z"/><path d="m25,4.74c9.93,0,18,8.07,18,18,0,7.5-11.64,19.3-18,24.91-6.36-5.6-18-17.4-18-24.91C7,12.82,15.07,4.74,25,4.74m0-3h0C13.4,1.74,4,11.14,4,22.74h0c0,11.6,21,28.85,21,28.85h0s21-17.25,21-28.85h0c0-11.6-9.4-21-21-21h0Z"/></g><path class="d" d="m10.76,22.56h0c0-7.86,6.38-14.24,14.24-14.24h0c7.86,0,14.24,6.38,14.24,14.24h0c0,7.86-14.24,19.56-14.24,19.56h0s-14.24-11.7-14.24-19.56Z"/><g><path class="c" d="m29.81,24.51c-.51-.31-.98-.61-1.43-.87-1.4-1.57-2.01-2.76-3.38-2.76s-1.95,1.14-3.29,2.66c-.49.29-1.02.62-1.59.97-2.69,1.63-2.8,4.56-1.55,5.81s3.66-.91,6.39-1.01c2.73.1,5.16,2.24,6.39,1.01,1.26-1.26,1.15-4.19-1.55-5.81Z"/><ellipse class="c" cx="25" cy="15.94" rx="2.13" ry="3.08"/><path class="c" d="m30.38,17.94c1.44-1.72,2.78-1.72,3.45-1.15.47.39.96,1.72-.19,3.89-.8,1.5-1.68,2.93-3.61.99-1.57-1.57-.74-2.42.35-3.73Z"/><path class="c" d="m19.62,17.94c-1.44-1.72-2.78-1.72-3.45-1.15-.47.39-.96,1.72.19,3.89.8,1.5,1.68,2.93,3.61.99,1.57-1.57.74-2.42-.35-3.73Z"/></g></svg>