<?xml version="1.0" encoding="UTF-8"?><svg id="a" xmlns="http://www.w3.org/2000/svg" viewBox="0 0 26.75 32"><defs><style>.e{fill:#fff;}.f{fill:#ffce00;}</style></defs><g><polygon class="e" points="13.38 24.12 1.5 29.65 1.5 1.5 25.25 1.5 25.25 29.65 13.38 24.12"/><path d="m23.75,3v24.3l-9.11-4.24-1.27-.59-1.27.59-9.11,4.24V3h20.75M26.75,0H0v32l13.38-6.22,13.38,6.22V0h0Z"/></g><polygon class="f" points="20.79 22.25 13.38 18.8 5.96 22.25 5.96 6.21 20.79 6.21 20.79 22.25"/><g id="b"><g id="c"><g><path class="e" d="m9.97,14.01c.45,0,.86-.07,1.09-.24.67-.41,1.12-.81,1.43-1.69.04-.09.15-.95.15-1,.03-.55-.09-1.63-.73-2.14-.68-.54-1.22-.81-2.17-.7-1.1.13-1.53,1.02-1.76,1.68-.14.4-.09,1.22.18,1.62.37.54,1.12.92,1.75.88.43-.03.76-.24.95-.61.29-.58.1-.92-.04-1.08-.25-.27-.65-.32-.89-.23l-.13.05.05.13c.05.12.16.16.26.2.15.06.29.11.33.35.03.19,0,.33-.1.43-.14.14-.41.21-.74.17-.24-.03-.56-.19-.71-.36-.27-.29-.23-1.21-.17-1.41.45-.89.94-1.35,1.98-.94l.07.03c.22.09.36.14.57.31.19.16.45.54.52.78.17.53.16,1.12-.02,1.61h0l-.04.09c-.04.08-.08.17-.13.26-.02.04-.04.08-.05.1-.29.48-.91.87-1.57,1-.62.12-1.22,0-1.68-.35-1.45-1.08-1.76-2.66-.86-4.31.25-.47.44-.72.89-1,.98-.59,2.53-.81,3.34-.81.46-.02.8.05,1.23.12.09.02.18.03.28.05l.41.07-.28-.31c-.36-.4-1.66-.62-2.01-.65-.06-.01-.15-.03-.25-.04-.12-.02-.28-.04-.34-.06-.12-.03-.34-.02-.43-.02-.59.04-1.49.21-2.12.57-.7.4-1.21.89-1.49,1.45-.03.06-.06.11-.09.17-.16.31-.35.66-.42,1.01-.02.11-.06.23-.09.35-.13.46-.28,1.03-.1,1.55.03.09.06.19.09.29.09.31.18.64.41.88.09.1.16.19.24.27.37.43.63.73,1.2,1.07.36.21,1.24.4,2,.4Z"/><path class="e" d="m20.74,11.96c-.02-.15-.03-.29-.04-.43-.02-.31-.41-1.78-.74-2.16-.92-1.07-1.6-1.55-3.26-1.59-.06,0-.11,0-.17,0-.25,0-.54-.01-.79.03-.56.08-1.53.97-1.8,1.45-.03.06-.07.12-.1.17-.13.21-.23.39-.31.81l-.04.24h.02c-.11.85-.04,1.56.21,2.11.3.65.74,1.11,1.35,1.41.22.11,1.26.31,1.54.31h0c.22,0,.48-.07.75-.2h.02c.06-.05.12-.1.19-.14.61-.41,1.3-.87,1.42-1.7.03-.18.02-.53,0-.69-.1-.79-.71-1.25-1.25-1.66-.05-.04-.11-.08-.16-.12l-.03-.02c-.77-.37-1.31-.3-1.88.21-.31.28-.46.43-.57.91-.13.54-.04.84.32,1.13.45.36.9.24,1.17,0,.33-.29.44-.75.26-1.05l-.2-.32-.06.37c-.06.34-.18.59-.34.7-.1.07-.21.08-.35.05-.16-.04-.31-.35-.27-.8.01-.15.13-.33.3-.48.25-.21.56-.32.86-.3.35.03,1.1.68,1.23,1,.09.24.12.38.1.65-.02.42-.09.66-.32.99v.02c-.09.11-.16.22-.52.4-.49.25-1.57.3-2.13-.19-.37-.32-.52-.56-.66-1.12-.1-.37-.17-.96-.06-1.4.2-.79.62-1.37,1.23-1.68.66-.33,1.48-.33,2.32,0,.83.41,1.06.71,1.53,1.52.16.37.31.87.44,1.45.33,1.47-.66,3.43-1.76,4.28-.16.13-.19.17-.23.3,0,.02-.01.04-.02.06l-.11.33.31-.16c.69-.36,2.05-1.85,2.37-2.62l.22-.74c.12-.43.07-.92.02-1.35Z"/><path class="e" d="m16.04,15.93h-.02c-.15-.43-.55-1.15-1.06-1.44-.42-.24-.5-.26-.72-.34-.09-.03-.21-.07-.4-.14l-.35-.11h-.02c-.62-.12-.99-.02-1.42.21-1.23.65-2.31,1.91-1.63,3.47.29.67.48.97,1.18,1.31.71.34,2.24.19,2.64-.63.3-.63.62-1.53-.12-2.14-.03-.02-.04-.04-.06-.05-.04-.03-.05-.04-.1-.06-.02,0-.04-.02-.09-.04-.88-.4-1.51.11-1.71.55-.17.35-.09.69.18.83l.06.03.05-.02c.06,0,.1-.02.11-.03l.06-.06v-.07s-.01-.06,0-.16c0-.02,0-.05,0-.08.01-.28.05-.5.37-.6.09-.03.23-.02.35.02.21.06.37.19.47.37.12.23.14.52.04.83-.03.05-.05.1-.07.16-.08.17-.15.33-.28.41-.23.14-.38.22-.71.21-.77-.01-1.35-.42-1.66-1.17-.15-.54,0-1.02.15-1.38.29-.7.93-1.1,1.75-1.1.98,0,1.36.07,1.92.91.02.03.04.06.06.08,0,.01.02.02.02.03.24.39.36,1.48.32,1.99-.02.21-.35.91-.52,1.12-.22.27-.81.72-1.09.83-.6.24-1.55.24-1.93.23-1.28-.03-2.79-1.07-3.37-2.31-.44-.94-.52-1.29-.53-2.35v-.57s-.27.51-.27.51c-.14.26-.12.7-.11,1.09,0,.1,0,.2,0,.28,0,.47.15.91.29,1.23.63,1.52,1.17,1.84,2.24,2.47.16.09.33.19.51.3.37.23,1.1.38,1.57.39h.76s.05.01.08.01c.2,0,.39,0,.49-.05.37-.15.53-.23.89-.46.93-.57,1.55-1.77,1.74-2.65.14-.67.11-.97-.04-1.7l-.04-.18Z"/></g></g></g></svg>