<?xml version="1.0" encoding="UTF-8"?><svg id="a" xmlns="http://www.w3.org/2000/svg" viewBox="0 0 26 26"><defs><style>.c{fill:#fff;}.d{fill:#151616;}</style></defs><g><path class="c" d="m18.37,22.92c-.79,0-1.62-.31-2.51-.64-.95-.35-1.93-.71-2.93-.75-.92.04-1.91.4-2.86.75-.89.33-1.72.64-2.51.64-.68,0-1.25-.23-1.69-.67-.8-.8-1.19-2.05-1.03-3.34.2-1.62,1.21-3.09,2.77-4.03l.66-.4c.28-.17.55-.34.81-.49.22-.25.41-.49.6-.71.96-1.16,1.79-2.17,3.34-2.17s2.38,1.01,3.34,2.17c.21.25.43.52.68.81.2.12,1.3.79,1.3.79,1.56.94,2.57,2.42,2.77,4.03.16,1.29-.23,2.54-1.03,3.34-.45.45-1.02.67-1.69.67h0Z"/><path class="d" d="m13,12.1c1.37,0,1.98,1.19,3.38,2.76.45.27.92.56,1.43.87,2.69,1.63,2.8,4.56,1.55,5.81-.27.27-.6.38-.99.38-1.34,0-3.28-1.31-5.41-1.39-2.12.08-4.07,1.39-5.4,1.39-.38,0-.71-.11-.99-.38-1.26-1.26-1.15-4.19,1.55-5.81.57-.34,1.1-.68,1.59-.97,1.34-1.52,1.95-2.66,3.29-2.66m0-2c-2.02,0-3.13,1.34-4.11,2.53-.15.18-.31.37-.48.57-.22.13-.45.27-.68.41-.21.13-.43.26-.65.4-1.83,1.1-3.01,2.84-3.25,4.77-.19,1.59.3,3.15,1.32,4.17.44.44,1.21.96,2.4.96.97,0,1.88-.34,2.86-.7.85-.31,1.73-.64,2.55-.69.82.05,1.7.37,2.55.69.97.36,1.89.7,2.86.7,1.19,0,1.96-.52,2.4-.96,1.02-1.02,1.51-2.58,1.32-4.17-.23-1.93-1.42-3.66-3.25-4.77-.22-.13-.43-.26-.64-.39-.18-.11-.36-.22-.53-.32-.2-.23-.39-.46-.56-.67-.98-1.19-2.1-2.53-4.11-2.53h0Z"/></g><g><path class="c" d="m13,11.24c-3.13,0-3.13-2.66-3.13-4.08,0-3.08,2.11-4.08,3.13-4.08,1.26,0,3.13,1.09,3.13,4.08v.19c0,1.13,0,2.3-.8,3.11-.53.53-1.29.79-2.32.79Z"/><path class="d" d="m13,4.08c.88,0,2.13.84,2.13,3.08,0,1.7.09,3.08-2.13,3.08-2.03,0-2.13-1.38-2.13-3.08,0-2.37,1.51-3.08,2.13-3.08m0-2c-1.71,0-4.13,1.58-4.13,5.08,0,1.26,0,5.08,4.13,5.08,1.29,0,2.31-.36,3.03-1.08,1.1-1.1,1.1-2.61,1.1-3.82v-.18c0-3.3-2.13-5.08-4.13-5.08h0Z"/></g><g><path class="c" d="m19.7,14.83c-.77,0-1.55-.4-2.38-1.23-2.16-2.16-.81-3.77.18-4.95l.11-.13c1.28-1.53,2.47-1.85,3.24-1.85.6,0,1.18.2,1.62.57.71.6,1.52,2.35.05,5.12-.52.98-1.31,2.46-2.82,2.46Z"/><path class="d" d="m20.86,7.67c.39,0,.73.13.97.34.47.39.96,1.72-.19,3.89-.52.98-1.08,1.93-1.94,1.93-.46,0-1-.27-1.67-.94-1.57-1.57-.74-2.42.35-3.73.92-1.09,1.79-1.49,2.48-1.49m0-2h0c-.99,0-2.48.38-4.01,2.2l-.11.13c-.95,1.13-2.94,3.49-.13,6.3,1.02,1.02,2.03,1.52,3.08,1.52,2.12,0,3.15-1.95,3.7-2.99,1.55-2.92.97-5.3-.29-6.36-.62-.52-1.42-.8-2.26-.8h0Z"/></g><g><path class="c" d="m6.3,14.83c-1.51,0-2.3-1.48-2.82-2.46-1.47-2.77-.66-4.52.05-5.12.44-.37,1.01-.57,1.62-.57.77,0,1.96.32,3.24,1.85l.11.13c.99,1.18,2.34,2.79.18,4.95-.83.83-1.6,1.23-2.38,1.23h0Z"/><path class="d" d="m5.14,7.67c.69,0,1.56.4,2.48,1.49,1.09,1.3,1.92,2.16.35,3.73-.67.67-1.21.94-1.67.94-.86,0-1.42-.95-1.94-1.93-1.15-2.17-.66-3.49-.19-3.89.25-.21.58-.34.97-.34m0-2c-.84,0-1.64.29-2.26.8-1.26,1.06-1.84,3.43-.29,6.36.56,1.05,1.59,2.99,3.7,2.99,1.05,0,2.06-.5,3.08-1.52,2.81-2.81.83-5.16-.13-6.3l-.11-.13c-1.53-1.82-3.02-2.2-4.01-2.2h0Z"/></g></svg>