<?xml version="1.0" encoding="UTF-8"?><svg id="a" xmlns="http://www.w3.org/2000/svg" viewBox="0 0 50 53.33"><defs><style>.c{fill:#fff;}.d{fill:#2c3e50;}</style></defs><g><path class="c" d="m25,49.62c-4.04-3.49-19.5-17.48-19.5-26.88C5.5,11.99,14.25,3.24,25,3.24s19.5,8.75,19.5,19.5c0,9.4-15.46,23.39-19.5,26.88Z"/><path d="m25,4.74c9.93,0,18,8.07,18,18,0,7.5-11.64,19.3-18,24.91-6.36-5.6-18-17.4-18-24.91C7,12.82,15.07,4.74,25,4.74m0-3h0C13.4,1.74,4,11.14,4,22.74h0c0,11.6,21,28.85,21,28.85h0s21-17.25,21-28.85h0c0-11.6-9.4-21-21-21h0Z"/></g><path class="d" d="m10.76,22.56h0c0-7.86,6.38-14.24,14.24-14.24h0c7.86,0,14.24,6.38,14.24,14.24h0c0,7.86-14.24,19.56-14.24,19.56h0s-14.24-11.7-14.24-19.56Z"/><g><g><path class="c" d="m26.92,29.56v1.64c0,.06.05.11.11.11h1.58c.06,0,.11-.05.11-.11v-1.74l-1.8.1Z"/><path class="c" d="m34.96,28.74l-3.41-4.69,1.9-.11c.12,0,.18-.12.12-.2l-3.08-3.91,1.36-.09c.08,0,.13-.1.08-.17l-4.01-5.94c-.04-.06-.14-.06-.18,0l-1.58,2.34,2.17,3.21c.05.07,0,.18-.09.18l-1.46.09,3.31,4.2c.07.09,0,.21-.12.22l-2.04.11,3.67,5.04s.04.07.03.1l3.18-.18c.16,0,.25-.14.16-.24Z"/></g><path class="c" d="m30.41,28.54l-3.67-5.04,2.04-.11c.13,0,.19-.13.12-.22l-3.31-4.2,1.46-.09c.09,0,.14-.11.09-.18l-4.32-6.39c-.05-.07-.15-.07-.19,0l-4.32,6.39c-.05.07,0,.18.09.18l1.46.09-3.31,4.2c-.07.09,0,.21.12.22l2.04.11-3.67,5.04c-.1.11,0,.25.17.26l5.64.31c.3.01.61.01.91.02v2.05c0,.06.05.12.12.12h1.7c.06,0,.12-.05.12-.12v-2.05c.3,0,.61,0,.91-.02l5.64-.31c.18,0,.27-.15.17-.26Z"/></g></svg>