<?xml version="1.0" encoding="UTF-8"?><svg id="a" xmlns="http://www.w3.org/2000/svg" viewBox="0 0 26 26"><defs><style>.c{fill:#fff;}.d{fill:#151616;}</style></defs><g><polygon class="c" points="20.25 9.78 17.84 10.94 15.43 9.78 13.01 10.94 10.59 9.78 8.18 10.94 5.75 9.78 3.3 10.95 1.57 7.35 5.75 5.34 8.17 6.5 10.59 5.34 13.01 6.5 15.43 5.34 17.84 6.5 20.25 5.34 24.43 7.35 22.7 10.96 20.25 9.78"/><path class="d" d="m20.25,6.45l2.85,1.37-.87,1.8-1.98-.95-2.41,1.16-2.41-1.16-2.42,1.16-2.42-1.16-2.42,1.16-2.42-1.16-1.99.95-.86-1.8,2.85-1.37,2.42,1.16,2.42-1.16,2.42,1.16,2.42-1.16,2.41,1.16,2.41-1.16m0-2.22l-.87.42-1.54.74-1.55-.74-.87-.42-.87.42-1.55.74-1.55-.74-.87-.42-.87.42-1.55.75-1.56-.75-.86-.41-.86.41-2.85,1.37-1.8.86.86,1.8.86,1.8.86,1.8,1.8-.86,1.12-.54,1.56.75.87.41.87-.42,1.55-.74,1.55.74.87.42.87-.42,1.55-.74,1.55.74.87.42.87-.42,1.54-.74,1.12.54,1.8.87.87-1.8.87-1.8.87-1.8-1.8-.87-2.85-1.37-.87-.42h0Z"/></g><g><polygon class="c" points="20.25 14.65 17.84 15.81 15.43 14.65 13.01 15.81 10.59 14.65 8.18 15.81 5.75 14.65 3.3 15.83 1.57 12.22 5.75 10.22 8.17 11.37 10.59 10.21 13.01 11.37 15.43 10.21 17.84 11.37 20.25 10.21 24.43 12.22 22.7 15.83 20.25 14.65"/><path class="d" d="m20.25,11.32l2.85,1.37-.87,1.8-1.98-.95-2.41,1.16-2.41-1.16-2.42,1.16-2.42-1.16-2.42,1.16-2.42-1.16-1.99.95-.86-1.8,2.85-1.37,2.42,1.16,2.42-1.16,2.42,1.16,2.42-1.16,2.41,1.16,2.41-1.16m0-2.22l-.87.42-1.54.74-1.55-.74-.87-.42-.87.42-1.55.74-1.55-.74-.87-.42-.87.42-1.55.75-1.56-.75-.86-.41-.86.41-2.85,1.37-1.8.86.86,1.8.86,1.8.86,1.8,1.8-.86,1.12-.54,1.56.75.87.41.87-.42,1.55-.74,1.55.74.87.42.87-.42,1.55-.74,1.55.74.87.42.87-.42,1.54-.74,1.12.54,1.8.87.87-1.8.87-1.8.87-1.8-1.8-.87-2.85-1.37-.87-.42h0Z"/></g><g><polygon class="c" points="20.25 19.5 17.84 20.66 15.43 19.5 13.01 20.66 10.59 19.5 8.18 20.66 5.75 19.5 3.3 20.68 1.57 17.07 5.75 15.06 8.17 16.22 10.59 15.06 13.01 16.22 15.43 15.06 17.84 16.22 20.25 15.06 24.43 17.07 22.7 20.68 20.25 19.5"/><path class="d" d="m20.25,16.17l2.85,1.37-.87,1.8-1.98-.95-2.41,1.16-2.41-1.16-2.42,1.16-2.42-1.16-2.42,1.16-2.42-1.16-1.99.95-.86-1.8,2.85-1.37,2.42,1.16,2.42-1.16,2.42,1.16,2.42-1.16,2.41,1.16,2.41-1.16m0-2.22l-.87.42-1.54.74-1.55-.74-.87-.42-.87.42-1.55.74-1.55-.74-.87-.42-.87.42-1.55.75-1.56-.75-.86-.41-.86.41-2.85,1.37-1.8.86.86,1.8.86,1.8.86,1.8,1.8-.86,1.12-.54,1.56.75.87.41.87-.42,1.55-.74,1.55.74.87.42.87-.42,1.55-.74,1.55.74.87.42.87-.42,1.54-.74,1.12.54,1.8.87.87-1.8.87-1.8.87-1.8-1.8-.87-2.85-1.37-.87-.42h0Z"/></g></svg>