<?xml version="1.0" encoding="UTF-8"?><svg id="a" xmlns="http://www.w3.org/2000/svg" viewBox="0 0 26.75 32"><defs><style>.e{fill:#fff;}.f{fill:#ea433b;}</style></defs><g><polygon class="e" points="13.38 24.12 1.5 29.65 1.5 1.5 25.25 1.5 25.25 29.65 13.38 24.12"/><path d="m23.75,3v24.3l-9.11-4.24-1.27-.59-1.27.59-9.11,4.24V3h20.75m3-3H0v32l13.38-6.22,13.38,6.22V0h0Z"/></g><polygon class="f" points="20.79 22.25 13.38 18.8 5.96 22.25 5.96 6.21 20.79 6.21 20.79 22.25"/><g id="b"><g id="c"><g><path class="e" d="m20.07,13.24c-.07-.11-.16-.26-.27-.42-.25-.38-.55-.86-.63-1.07-.36-1.04-.61-1.91-.38-2.9.1-.44.22-.63.31-.78.09-.14.16-.27.16-.52v-.18s-.18.03-.18.03c-.85.13-2.12,1.46-2.68,2.14-.66.82-.76,1.49-.86,2.21-.04.28-.08.56-.16.87h-.07c-.18-.04-.6-.91-.66-1.23-.13-.65.1-1.3.33-1.92.08-.22.16-.45.22-.67.08-.26.11-.49.15-.72.11-.76-.01-1.66-.34-2.35-.09-.18-.16-.35-.24-.56-.09-.23-.71-1.18-1.1-1.2h-.15s-.02.14-.02.14c-.04.35-.03.55-.02.72.01.31.02.49-.31,1.34-.33.84-.85,1.45-1.52,2.09-1.77,1.7-1.84,1.86-1.82,4.32v.02c.04.22.08.28.15.37.02.02.04.05.07.09l.18.27.1-.31c.05-.17.06-.28.05-.47v-.02c-.17-1.28.26-2.36,1.4-3.49.08-.08.15-.15.22-.22.07-.07.14-.14.22-.22l.76-.86c.31-.33.85-1.43.96-1.9.01-.06.02-.12.04-.18.02-.1.03-.19.06-.27,0-.02.04-.09.05-.11.03-.03.04-.05.05-.05.02.01.04.05.09.11.9,1.31.58,2.92.14,4.04-.07.17-.14.32-.2.47-.06.13-.12.27-.18.41-.13.31-.14.85-.09,1.21.05.39.48,1.05.68,1.31l.78.89c.23.27.36.44.54.71.64.99.37,2.44-.26,3.27-.65.8-1.75,1.25-2.79,1.15-.88-.09-1.59-.55-1.99-1.3-.43-.81-.48-2.05.26-2.77.17-.16.29-.27.48-.4.6-.41,1.36-.57,2.04-.41.57.13.88.51,1.05.81.28.5.35,1.16.18,1.67-.11.32-.21.44-.42.67l-.08.09c-.25.28-1.36.62-1.89.2-.37-.29-.5-.93-.3-1.42.18-.42.59-.61,1.14-.53.19.03.19.05.24.28.06.31.08.48-.02.53-.15.08-.34.12-.41.07-.14-.1-.24-.09-.3-.05-.07.04-.1.11-.09.19.01.11.11.22.24.26.33.11.66.04.9-.18.26-.24.38-.63.29-.96-.08-.32-.31-.54-.66-.64-.95-.26-1.6.21-1.9.72-.37.64-.28,1.45.19,1.91.31.3.65.41,1.1.54h.02c.44.13.56.15,1.02-.05l.53-.25c.63-.36,1.01-1.11,1.01-2.02,0-.93-.39-1.78-1.02-2.15-.41-.24-.73-.25-.99-.26-.29-.01-.43-.02-.59-.32-.61-1.2-.57-1.84.19-3.16.17-.29,1.02-1.95,1.08-2.45l.12-1.14-.42,1.06c-.36.92-.78,1.6-1.26,2.38-.15.24-.3.48-.45.74-.48.82-.54,1.72-.16,2.42.11.21.17.48.13.54-.04.06-.07.07-.2.11-.16.04-.4.1-.77.34-.18.11-.54.44-.69.67h-.09c-.29-1.35-1.09-2.91-2.25-3.43-.21-.1-1.3-.46-1.57-.46h-.17v.17c.05.4.16.59.26.77.16.27.33.56.23,1.88-.01.16-.02.29-.03.39q-.02.41-.25.83c-.04.08-.09.17-.15.27-.2.37-.46,1.2-.49,1.68-.03.45.02,1.07.21,1.43.29.56,1.17,1.41,1.88,1.13l.4-.16-.41-.13c-.98-.32-1.34-.99-1.26-2.33.04-.56.1-.76.25-1.19.02-.07.05-.15.08-.23l.08-.25c.24-.71.52-1.52.46-2.3-.02-.3-.13-.58-.23-.84-.04-.11-.08-.22-.12-.33,0-.03-.02-.05-.03-.08.17-.01.32.07.48.17l.04.02c.66.37,1.11.9,1.53,1.78l.03.07c.03.06.09.19.1.23.25.66.24,1.52.23,2.27,0,.58-.01,1.08.1,1.36.48,1.47,1.72,2.25,3.51,2.25.19,0,.38,0,.58-.03.92-.08,2.04-.82,2.5-1.64.03-.05.05-.09.07-.12.03-.06.06-.11.09-.17.29-.59.41-1.53.37-2.19h.01s0-.13,0-.13c-.03-.35-.25-1.04-.45-1.36-.88-1.45-.15-2.84.55-4.17l.11-.21c.14-.22.61-.89,1.1-1.06-.01.15-.04.24-.08.35-.05.18-.12.38-.13.82-.04,1.23.18,1.72.59,2.61l.03.08c.17.37.28.59.52.94l.06.09c.18.26.36.53.48.78.42.93.7,1.55.32,2.62-.25.7-.76,1.55-1.32,1.85,0,0-.41.23-.45.27l-.2.2.28.06c.56.12,1.56-.85,1.94-1.31.9-1.12.5-3.51-.2-4.58Z"/><path class="e" d="m18.54,16.86c.03-.29.03-.6.03-.95v-.14c0-.34-.05-.65-.15-.97-.01-.06-.03-.12-.05-.17-.05-.15-.11-.3-.16-.45-.03-.08-.06-.17-.09-.24-.04-.16-.1-.27-.15-.39-.04-.09-.08-.18-.11-.29-.04-.12-.09-.22-.14-.31-.03-.06-.06-.12-.08-.17-.07-.2-.08-.26-.11-.43l-.02-.12c-.03-.2-.05-.45-.07-.67-.04-.43-.06-.55-.08-.6l-.21-.48-.09.51c-.12.75.08,1.96.33,2.66l.05.15c.24.62.59,1.56.58,2.17,0,.09-.01.44-.05.7-.02.11-.05.23-.08.34-.02.04-.05.12-.12.29-.06.15-.15.38-.18.42-1.12,2.16-2.82,2.94-5.51,2.53-1.31-.2-2.96-.98-3.31-2.53-.19-.64-.09-1.34.02-2.08.15-1,.3-2.03-.32-2.96l-.04-.05c-.05-.06-.13-.16-.25-.1-.12.06-.08.19-.05.3.02.07.05.15.09.23.04.1.08.2.11.3.12.46.14,1.09.06,1.74l-.03.28h.01c-.03.18-.06.38-.09.57-.22,1.3-.45,2.64.79,3.66,1.24.9,2.16,1.35,3.7,1.35h.02c2.11,0,3.7-.38,5.04-2.24l.1-.17c.29-.5.64-1.11.59-1.71Z"/></g></g></g></svg>