<?xml version="1.0" encoding="UTF-8"?><svg id="a" xmlns="http://www.w3.org/2000/svg" viewBox="0 0 26 26"><defs><style>.c{fill:#fff;}.d{fill:#151616;}</style></defs><g><path class="c" d="m7.88,23.88c-.41,0-.8-.2-1.03-.55-.23-.34-.28-.78-.13-1.16l.8-2.03c.15-.38.52-.63.93-.63h9.09c.41,0,.78.25.93.63l.8,2.03c.15.39.1.82-.13,1.16-.23.34-.62.55-1.03.55H7.88Z"/><path class="d" d="m17.54,20.51l.8,2.03c.06.16-.06.34-.23.34H7.88c-.18,0-.3-.18-.23-.34l.8-2.03h9.09m0-2h-9.09c-.82,0-1.56.5-1.86,1.26l-.8,2.03c-.27.69-.19,1.48.23,2.09.42.62,1.11.98,1.86.98h10.23c.75,0,1.44-.37,1.86-.98s.51-1.4.23-2.09l-.8-2.03c-.3-.76-1.04-1.26-1.86-1.26h0Z"/></g><g><polygon class="c" points="7.94 20.13 8.74 6.03 17.26 6.03 18.06 20.13 7.94 20.13"/><path class="d" d="m16.32,7.03l.68,12.1h-8l.68-12.1h6.63m-4.27,5.94h1.94v-1.99c0-.4-.32-.72-.72-.72h-.5c-.4,0-.72.32-.72.72v1.99m6.16-7.94H7.79l-.11,1.89-.68,12.1-.12,2.11h12.23l-.12-2.11-.68-12.1-.11-1.89h0Z"/></g><g><path class="c" d="m7.86,8.07c-.67-.16-1.43-.75-1.43-1.69v-2.26l1-1h2l1,.9.35,3.51-1.3,1.05-1.61-.51Z"/><path class="d" d="m9.43,4.12l.35,3.51-1.61-.51c-.33-.08-.74-.33-.74-.74v-2.26h2m0-2h-2l-2,2v2.26c0,1.23.89,2.32,2.19,2.66l1.55.5,2.6-2.1-.35-3.51-1.99-1.8h0Z"/></g><g><path class="c" d="m15.23,7.53l.35-3.51,1-.9h2l1,1v2.26c0,.94-.76,1.53-1.51,1.71l-1.53.49-1.3-1.05Z"/><path class="d" d="m18.57,4.12v2.26c0,.41-.41.66-.74.74l-1.61.51.35-3.51h2m0-2h-2l-1.99,1.8-.35,3.51,2.6,2.1,1.55-.5c1.29-.34,2.19-1.43,2.19-2.66v-2.26l-2-2h0Z"/></g><g><polygon class="c" points="10.12 7.63 10.48 2.12 15.52 2.12 15.91 7.63 10.12 7.63"/><path class="d" d="m14.59,3.12l.25,3.51h-3.65l.23-3.51h3.17m1.86-2h-6.91l-.12,1.87-.23,3.51-.14,2.13h7.93l-.15-2.14-.25-3.51-.13-1.86h0Z"/></g></svg>