<?xml version="1.0" encoding="UTF-8"?><svg id="a" xmlns="http://www.w3.org/2000/svg" xmlns:xlink="http://www.w3.org/1999/xlink" viewBox="0 0 50 53.33"><defs><style>.f{fill:#fff;}.g{fill:#2c3e50;}.h{clip-path:url(#d);}.i{fill:none;}</style><clipPath id="d"><rect class="i" x="15.16" y="12.09" width="19.59" height="13.05"/></clipPath></defs><g><path class="f" d="m25,49.62c-4.04-3.49-19.5-17.48-19.5-26.88C5.5,11.99,14.25,3.24,25,3.24s19.5,8.75,19.5,19.5c0,9.4-15.46,23.39-19.5,26.88Z"/><path d="m25,4.74c9.93,0,18,8.07,18,18,0,7.5-11.64,19.3-18,24.91-6.36-5.6-18-17.4-18-24.91C7,12.82,15.07,4.74,25,4.74m0-3h0C13.4,1.74,4,11.14,4,22.74h0c0,11.6,21,28.85,21,28.85h0s21-17.25,21-28.85h0c0-11.6-9.4-21-21-21h0Z"/></g><path class="g" d="m10.76,22.56h0c0-7.86,6.38-14.24,14.24-14.24h0c7.86,0,14.24,6.38,14.24,14.24h0c0,7.86-14.24,19.56-14.24,19.56h0s-14.24-11.7-14.24-19.56Z"/><g><g class="h"><g><polygon class="f" points="24.96 14.18 18.14 25.18 31.78 25.18 24.96 14.18"/><polygon class="f" points="34.62 17.58 27.45 26.32 32.05 28.59 34.62 17.58"/><polygon class="f" points="15.3 17.58 22.47 26.32 17.87 28.59 15.3 17.58"/></g></g><rect class="f" x="17.05" y="27.42" width="15.82" height="2"/><rect class="f" x="17.05" y="25.02" width="15.82" height="1.52"/><circle class="f" cx="24.96" cy="14.56" r="1"/><circle class="f" cx="34.35" cy="18.08" r="1"/><circle class="f" cx="15.65" cy="18.08" r="1"/></g></svg>