<?xml version="1.0" encoding="UTF-8"?><svg id="a" xmlns="http://www.w3.org/2000/svg" viewBox="0 0 26 26"><defs><style>.c{fill:#fff;}.d{fill:#151616;}</style></defs><g><g><path class="c" d="m14.92,20.79v1.64c0,.06.05.11.11.11h1.58c.06,0,.11-.05.11-.11v-1.74l-1.8.1Z"/><path class="d" d="m16.72,20.69l-1.8.1v1.64c0,.06.05.11.11.11h1.58c.06,0,.11-.05.11-.11v-1.74h0Z"/></g><g><path class="c" d="m17.81,16.13h.21c.27-.03.51-.13.7-.29,0,0,2.51,3.46,2.51,3.46l-1.08.06-2.35-3.22Zm1.17-1.68c-.03-.06-.07-.12-.11-.17l-2.19-2.78c.24-.11.43-.29.55-.53.17-.36.14-.79-.08-1.12l-1.79-2.65.46-.69,2.41,3.57c-.29.08-.54.28-.66.56-.15.34-.1.73.13,1.03l2.04,2.58h-.24c-.19.02-.36.09-.51.19Z"/><path class="d" d="m15.82,4.82s-.07.02-.09.05l-1.58,2.34,2.17,3.21c.05.07,0,.18-.09.18l-1.46.09,3.31,4.2c.07.09,0,.21-.12.22l-2.04.11,3.67,5.04s.04.07.03.1l3.18-.18c.16,0,.25-.14.16-.24l-3.41-4.69,1.9-.11c.12,0,.18-.12.12-.2l-3.08-3.91,1.36-.09c.08,0,.13-.1.08-.17l-4.01-5.94s-.06-.05-.09-.05h0Z"/></g></g><g><path class="c" d="m10.72,20.11c-.11-.42-.49-.73-.94-.75,0,0-.71-.01-.89-.02l-4.14-.23,2.77-3.8c.22-.3.25-.69.09-1.02-.16-.33-.48-.55-.85-.57l-.41-.02,2.28-2.89c.23-.29.28-.69.13-1.03-.14-.32-.43-.54-.77-.58l2.72-4.03,2.72,4.03c-.34.05-.63.27-.77.58-.15.34-.1.73.13,1.03l2.28,2.89-.41.02c-.37.02-.69.24-.85.57-.16.33-.12.72.09,1.02l2.77,3.8-4.15.23c-.17,0-.36,0-.54.01h-.34c-.45.02-.83.33-.94.75Z"/><path class="d" d="m10.72,6.95l1.32,1.96c-.11.14-.21.29-.29.46-.3.68-.2,1.47.26,2.05l1.41,1.78c-.21.18-.38.4-.5.65-.31.66-.24,1.44.19,2.03l1.69,2.32-2.3.13c-.18,0-.36.01-.53.01h-.33c-.33.01-.65.1-.92.25-.27-.15-.59-.24-.92-.25h-.33c-.18,0-.36-.01-.52-.02l-2.32-.13,1.69-2.32c.43-.59.5-1.37.19-2.03-.12-.25-.29-.48-.5-.65l1.41-1.78c.46-.58.56-1.37.26-2.05-.08-.17-.17-.32-.29-.46l1.32-1.96m0-3.48s-.07.02-.1.05l-4.32,6.39c-.05.07,0,.18.09.18l1.46.09-3.31,4.2c-.07.09,0,.21.12.22l2.04.11-3.67,5.04c-.1.11,0,.25.17.26l5.64.31c.3.01.61.01.91.02v2.05c0,.06.05.12.12.12h1.7c.06,0,.12-.05.12-.12v-2.05c.3,0,.61,0,.91-.02l5.64-.31c.18,0,.27-.15.17-.26l-3.67-5.04,2.04-.11c.13,0,.19-.13.12-.22l-3.31-4.2,1.46-.09c.09,0,.14-.11.09-.18l-4.32-6.39s-.06-.05-.1-.05h0Z"/></g></svg>