<?xml version="1.0" encoding="UTF-8"?><svg id="a" xmlns="http://www.w3.org/2000/svg" viewBox="0 0 50 53.33"><defs><style>.c{fill:#fff;}.d{fill:#2c3e50;}</style></defs><g><path class="c" d="m25,49.62c-4.04-3.49-19.5-17.48-19.5-26.88C5.5,11.99,14.25,3.24,25,3.24s19.5,8.75,19.5,19.5c0,9.4-15.46,23.39-19.5,26.88Z"/><path d="m25,4.74c9.93,0,18,8.07,18,18,0,7.5-11.64,19.3-18,24.91-6.36-5.6-18-17.4-18-24.91C7,12.82,15.07,4.74,25,4.74m0-3h0C13.4,1.74,4,11.14,4,22.74h0c0,11.6,21,28.85,21,28.85h0s21-17.25,21-28.85h0c0-11.6-9.4-21-21-21h0Z"/></g><path class="d" d="m10.76,22.56h0c0-7.86,6.38-14.24,14.24-14.24h0c7.86,0,14.24,6.38,14.24,14.24h0c0,7.86-14.24,19.56-14.24,19.56h0s-14.24-11.7-14.24-19.56Z"/><g><polygon class="c" points="29.84 18.04 27.43 16.88 25.01 18.04 22.59 16.88 20.18 18.04 17.75 16.88 15.77 17.83 14.9 16.03 17.75 14.66 20.18 15.82 22.59 14.66 25.01 15.82 27.43 14.66 29.84 15.82 32.25 14.66 35.1 16.03 34.23 17.83 32.25 16.88 29.84 18.04"/><polygon class="c" points="29.84 22.91 27.43 21.75 25.01 22.91 22.59 21.75 20.18 22.91 17.75 21.75 15.77 22.7 14.9 20.9 17.75 19.53 20.18 20.69 22.59 19.53 25.01 20.69 27.43 19.53 29.84 20.69 32.25 19.53 35.1 20.9 34.23 22.7 32.25 21.75 29.84 22.91"/><polygon class="c" points="29.84 27.76 27.43 26.6 25.01 27.76 22.59 26.6 20.18 27.76 17.75 26.6 15.77 27.55 14.9 25.75 17.75 24.38 20.18 25.54 22.59 24.38 25.01 25.54 27.43 24.38 29.84 25.54 32.25 24.38 35.1 25.75 34.23 27.55 32.25 26.6 29.84 27.76"/></g></svg>