<?xml version="1.0" encoding="UTF-8"?><svg id="a" xmlns="http://www.w3.org/2000/svg" viewBox="0 0 50 53.33"><defs><style>.g{fill:#fff;}.h{fill:#2c3e50;}</style></defs><g><path class="g" d="m25,49.62c-4.04-3.49-19.5-17.48-19.5-26.88C5.5,11.99,14.25,3.24,25,3.24s19.5,8.75,19.5,19.5c0,9.4-15.46,23.39-19.5,26.88Z"/><path d="m25,4.74c9.93,0,18,8.07,18,18,0,7.5-11.64,19.3-18,24.91-6.36-5.6-18-17.4-18-24.91C7,12.82,15.07,4.74,25,4.74m0-3h0C13.4,1.74,4,11.14,4,22.74h0c0,11.6,21,28.85,21,28.85h0s21-17.25,21-28.85h0c0-11.6-9.4-21-21-21h0Z"/></g><path class="h" d="m10.76,22.56h0c0-7.86,6.38-14.24,14.24-14.24h0c7.86,0,14.24,6.38,14.24,14.24h0c0,7.86-14.24,19.56-14.24,19.56h0s-14.24-11.7-14.24-19.56Z"/><g><polygon class="g" points="28.33 17.93 25.97 21.75 29.32 28.7 35 28.7 28.33 17.93"/><polygon class="g" points="21.67 14.85 15 28.7 28.33 28.7 21.67 14.85"/></g></svg>