<?xml version="1.0" encoding="UTF-8"?><svg id="a" xmlns="http://www.w3.org/2000/svg" viewBox="0 0 26.75 32"><defs><style>.e{fill:#fff;}.f{fill:#2fcc51;}</style></defs><g><polygon class="e" points="13.38 24.12 1.5 29.65 1.5 1.5 25.25 1.5 25.25 29.65 13.38 24.12"/><path d="m23.75,3v24.3l-9.11-4.24-1.27-.59-1.27.59-9.11,4.24V3h20.75m3-3H0v32l13.38-6.22,13.38,6.22V0h0Z"/></g><polygon class="f" points="20.79 22.25 13.38 18.8 5.96 22.25 5.96 6.21 20.79 6.21 20.79 22.25"/><g id="b"><g id="c"><g><path class="e" d="m13.95,12.2c-.08-.01-.1-.04-.14-.11-.05-.08-.11-.21-.32-.24h-.09s-.05.06-.05.06c-.17.28-.11.56.15.74.38.26,1.08.24,1.39-.17.34-.46.24-1.19-.06-1.61l-.35-.33-.02-.02c-.31-.2-.34-.21-.66-.21-.1,0-.24,0-.43,0-.37,0-.65.12-.94.4-.34.35-.38.41-.42.56-.01.05-.03.11-.08.22-.15.32-.16,1.06.06,1.61.16.38.41.64.73.76l.06.02c.06.02.11.04.16.06l.21.1h.02c.73.23,1.6.1,2.58-.38.14-.07.31-.27.53-.52.05-.06.09-.11.13-.15.43-.48.44-2.2.12-2.75-.02-.19-.12-.32-.21-.45l-.05-.07v-.02s-.08-.07-.12-.11c-.1-.11-.22-.24-.32-.31-.37-.29-.64-.41-.96-.56-.08-.04-.16-.07-.24-.11l-.14-.07c-.25-.11-.4-.11-.59-.1-.05,0-.1,0-.15,0-.6,0-1.52,0-1.98.39l-.94.98c-.46.51-.54,1.12-.61,1.61-.02.17-.04.33-.08.46-.07.28-.04.67.02.92.01.05.16.61.22.73.32.72,1.14,1.34,1.77,1.58.4.15.71.23,1.07.23.09,0,.18,0,.28-.01.08,0,.38-.04.59-.09.11-.03.84-.31.93-.36l.19-.12-.19-.12c-.11-.06-.29-.03-.91.11-.26.06-.52.12-.64.12-.21,0-.43,0-.61-.04-.28-.06-.41-.15-.57-.26-.1-.06-.21-.14-.35-.21-.3-.14-.66-.53-.83-.82l-.11-.16c-.27-.42-.32-1.63,0-2.31,0-.01.02-.03.03-.05.02-.03.03-.06.03-.06l.04-.09c.17-.35.4-.84.68-1.07l.89-.48c.15-.01.29-.04.43-.06.43-.07.87-.14,1.43.02.71.21,1.25.76,1.41,1.43h0c.08.26.19.93.12,1.22-.18.71-.31,1.13-.94,1.41-.53.23-1.02.26-1.59.11-.02,0-.04-.01-.07-.02-.02,0-.05-.01-.07-.02l-.04-.02c-.06-.03-.17-.08-.2-.11l-.18-.17c-.41-.4-.56-1.22-.13-1.67.12-.13.24-.24.41-.33.14-.07.43-.17.55-.18.19-.02.35-.03.44.03.27.39.4.72.17,1.07-.08.13-.17.18-.46.13Z"/><path class="e" d="m20.78,17.78l-.31-.99-.07-.2c-.05-.13-.06-.2-.07-.28-.02-.1-.04-.21-.12-.44l-.82-2.15c-.37-.88-.66-1.98-.92-2.94l-.03-.11c-.05-.21-.11-.32-.19-.5l-.02-.04c-.13-.32-.27-.74-.42-1.18-.24-.74-.5-1.5-.77-1.91-.03-.04-.05-.09-.08-.14-.04-.07-.08-.14-.12-.19l-.18-.18s0-.01-.01-.01c-.02-.02-.03-.03-.07-.06-.07-.06-.1-.07-.17-.11h-.02c-.42-.23-1.12-.2-1.74-.18-.14,0-.26,0-.38.01-.08,0-.28,0-.54,0-1.38-.01-2.42-.01-2.91.02l.03-.07-.31.1c-.4.12-.73.43-.86.79l-.05.13c-.04.1-.05.16-.06.21,0,.05-.01.07-.04.11-.14.25-.25.5-.35.75-.08.18-.15.37-.25.55v.02c-.39,1.32-.86,2.62-1.3,3.87-.28.77-.56,1.57-.83,2.37-.02.07-.05.17-.09.28-.18.58-.57,1.8-.72,2.05-.13.2-.14.9-.11,2.11,0,.21,0,.38,0,.48,0,.43.04.66.17.79.13.12.3.12.49.11.16,0,.35-.02.57.04.18.05,1.17.05,2.71.05.24,0,.43,0,.52,0,.33,0,.68,0,1.02-.02.46-.01.93-.03,1.38-.01h.02c.14,0,.37.01.42-.3.03-.19.09-.54.13-.71.04-.21.04-.46.03-.7,0-.08,0-.16,0-.23,0-.31,0-.62,0-.93s0-.62,0-.93v-.02c-.07-.52-.66-.5-1.08-.48-.05,0-.1,0-.15,0l-2.84.08h-.72c-.23.02-.46.02-.5.33-.02.11.02.18.05.22.09.11.24.11.35.11.02,0,.04,0,.06,0,.71.03,1.44.01,2.15,0h.43c.12,0,.24-.01.35-.01.52-.01.86-.02.98.1.06.06.09.18.08.4,0,.2-.04.24-.14.37-.01.02-.02.03-.04.05-.34.02-.68.03-1.01.04-.41.01-.8.02-1.18.05-.39.02-.81.02-1.21.01-.35,0-.72-.01-1.07,0-.18,0-.32.14-.33.33-.01.18.1.34.28.37.38.07,1.21.04,2.1,0,.95-.03,2.14-.08,2.39.04l.07.04s.08.08.09.13c.06.19.01.48-.07.61-.05.09-.27.19-1.03.18h-.07c-.3,0-.7,0-1.17.02-1.11.02-2.5.06-3.14-.03h-.05s-.01,0-.02,0c0,0-.01-.02-.02-.04-.16-.29-.16-.46-.15-.88,0-.11,0-.23,0-.38,0-.63.02-.72.07-.88.03-.11.07-.24.11-.54.1-.66,1.11-3.57,1.46-4.4.29-.69.52-1.51.74-2.31.23-.82.46-1.67.77-2.37.04-.09.07-.18.09-.27.03-.08.05-.16.08-.24.1-.23.27-.42.45-.51l.37-.12c.62-.2,3.18-.16,4.28-.15h.29c.37,0,.47.01.69.17.39.27.56.5.76,1,.37.97.57,1.56.84,2.49.13.46.25.93.37,1.38.3,1.14.6,2.33,1.1,3.43l.76,1.95v.02c.1.17.1.23.1.47v.87c0,.14-.08,1.04-.14,1.28-.29.05-1.28.03-1.89.02-.34,0-.63-.01-.79,0h-.12c-1.99.06-2.42-.04-2.49-.1-.05-.06-.07-.25-.05-.56,0-.19,0-.24.2-.29.17-.03,2.35-.04,3.4-.04.28,0,.53,0,.69,0h.03c.1,0,.34,0,.38-.2.02-.11,0-.2-.04-.27-.08-.11-.22-.16-.36-.18h-.04c-.19-.05-.43-.1-.6-.1-.43-.02-1.13-.02-1.81-.02-.47,0-.91,0-1.26,0-.3,0-.49-.02-.55-.09-.06-.07-.05-.29-.01-.59.06-.06.37-.19,1.83-.22h.51c.55-.02,1.11-.02,1.68-.05h.04c.07,0,.15,0,.2-.07.06-.07.05-.16.04-.27-.02-.21-.21-.24-.34-.26-.09-.01-.13-.02-.19-.04h-.06c-.27-.07-3.05-.05-3.84-.03-.06,0-.11,0-.14,0-.21,0-.26.05-.33.24l-.02.06s-.02.06-.03.08c-.05.14-.05.15-.05.35,0,.09,0,.22,0,.42,0,.22-.02.47-.04.74-.05.69-.1,1.46.14,2.03.02.04.03.07.03.09.04.11.09.18.25.19.09,0,.19.02.3.04.14.02.31.05.48.05.33,0,.66,0,.99,0,.26,0,.64.02,1.07.05.58.04,1.23.07,1.8.07.5,0,.94-.03,1.2-.12h.04c.28-.11.63-.23.69-.69.02-.13.02-.32.03-.46v-.04c.02-.48.05-1.47-.08-1.96Z"/></g></g></g></svg>