<?xml version="1.0" encoding="UTF-8"?><svg id="a" xmlns="http://www.w3.org/2000/svg" viewBox="0 0 26.75 32"><defs><style>.e{fill:#fff;}.f{fill:#358ed8;}</style></defs><g><polygon class="e" points="13.38 24.12 1.5 29.65 1.5 1.5 25.25 1.5 25.25 29.65 13.38 24.12"/><path d="m23.75,3v24.3l-9.11-4.24-1.27-.59-1.27.59-9.11,4.24V3h20.75m3-3H0v32l13.38-6.22,13.38,6.22V0h0Z"/></g><polygon class="f" points="20.79 22.25 13.38 18.8 5.96 22.25 5.96 6.21 20.79 6.21 20.79 22.25"/><g id="b"><g id="c"><path class="e" d="m20.61,10.65c-.02-.05-.04-.12-.05-.18-.03-.11-.06-.23-.1-.32-.11-.23-.19-.45-.27-.67-.17-.48-.35-.99-.9-1.54-1.62-1.64-2.99-2.05-5.27-2.29-.2,0-.36,0-.5-.01-.77-.02-.81-.02-1.76.16-.68.13-1.55.35-2.29.87,0,0,0,0,0,0h0s-.2.12-.2.12c-.29.19-.86.68-1.19.97l-.06.05c-.36.32-.64.7-.91,1.07l-.29.47c-.07.12-.12.23-.16.33-.04.09-.08.18-.13.28-.04.07-.29.82-.31.9-.05.14-.05.27-.06.4-.01.16-.02.33-.1.55-.29.85-.12,2.02.04,3.06.03.19.06.38.08.56.06.4.13.65.32,1.03.28.56.97,1.58,1.38,1.96l1.18.84h.02c.11.06.24.14.38.21.17.09.34.19.49.25.77.33,2.64.6,3.94.6.32,0,.6-.02.82-.05,1.73-.27,3.87-1.18,4.74-2.6l.02-.04c.45-.73.91-1.48,1.02-2.33.05-.42.13-.69.2-.96.09-.36.18-.69.19-1.27,0-.1,0-.19,0-.29.02-.77.03-1.33-.26-2.14Zm-7.01,8.96c.12-.04.25-.09.37-.15.08-.05.16-.1.23-.16.04-.03.07-.05.11-.08h.02c.16-.13.37-.27.54-.43.12-.12.27-.27.43-.44,1.08-1.11,3.07-3.16,4.37-2.55-.04.31-.43.93-.64,1.2-.15.19-.31.4-.45.6-.13.18-.27.37-.4.54-.84,1.04-2.44,1.35-3.74,1.5-.24.03-.7.04-.98.02.05-.02.1-.04.15-.06Zm5.86-4.48c-.61.03-1.09.06-1.81.42-.45.22-.77.45-1.15.81l-1.06.91c-.57.54-.91.84-1.57,1.3-.58.39-1.3.57-2.21.57-1.16,0-1.56-.06-2.55-.66-.06-.04-.13-.09-.2-.13-.12-.08-.26-.16-.34-.25.26,0,.48,0,.69,0,1.03.01,1.62.02,2.86-.44h0s.17-.06.17-.06c.29-.11.94-.53,1.54-.92.31-.2.46-.32.72-.57l1.12-1.04c.12-.09.25-.19.38-.29.5-.38,1.07-.81,1.6-1.06.61-.29,1.79-.34,2.34-.09.09.04.11.09.11.21,0,.08-.01.18-.02.27,0,.05-.01.1-.02.15-.04.4-.1.83-.36.85-.09,0-.18.01-.26.01Zm-9.19-7.82c.7-.28,1.49-.3,2.24-.06.58.18.71.25,1.14.62.32.28.65.58.81.9l.35.83c.19.76.13,1.25-.23,1.89-.19.33-.66.74-1.2.89-.38.1-.74.05-1.05-.14h-.03c-.25-.1-.31-.32-.39-.67-.04-.19-.08-.38-.18-.56-.24-.45-.16-.91.19-1.23.2-.18.5-.31.8-.31.2,0,.4.05.58.17l.24.21c.16.15.27.27.31.44.06.26.02.53-.11.71-.09.13-.21.21-.36.23-.23.04-.39,0-.44-.1-.05-.08-.01-.19.02-.23.03-.03.04-.04.06-.04.14-.04.16-.15.16-.28v-.09s-.09-.03-.09-.03c-.19-.07-.38-.03-.52.09-.15.13-.21.34-.17.57.05.26.32.5.64.58.37.09.73-.06,1-.4.2-.25.27-.68.18-1.11-.09-.45-.32-.8-.64-.97-.66-.36-1.38-.31-1.96.13-.14.1-.23.23-.32.35-.05.06-.09.12-.14.18-.09-.04-.22-.12-.35-.21-.31-.22-.74-.51-1.27-.54-.92-.04-1.08.02-1.68.26l-.19.08c-.18.07-.28.13-.35.17.06-.21.17-.47.25-.56.21-.24.3-.3.39-.38.06-.05.12-.1.22-.19.77-.66,1.01-.81,1.87-1.16h0s.18-.07.18-.07Zm7.71,2.05c-.15.5-.39.83-.72,1-.39.2-.91.19-1.59-.03-.07-.05-.23-.43-.26-.56v-.06s-.02,0-.02,0c-.04-.18-.09-.31-.13-.44-.03-.09-.06-.17-.09-.27-.06-.21-.03-.39.08-.54.15-.2.43-.34.74-.35.25-.01.46-.01.64.05.28.1.42.4.45.64.03.26-.01.45-.12.56-.12.11-.31.11-.44.09-.17-.03-.19-.07-.19-.07,0-.03.07-.15.1-.19.05-.07.09-.13.11-.19l.04-.16h-.17s0,0,0,0c-.19,0-.35.09-.44.26-.09.18-.07.4.05.57.15.22.44.32.8.27.28-.04.48-.21.6-.51.19-.46-.05-1.17-.37-1.47l-.18-.16h-.01s-.17-.09-.19-.1c-.52-.23-.76-.11-1.19.12h-.02c-.14.08-.25.16-.34.22-.27.18-.32.22-.57-.07l-.19-.21-.1-.1c-.25-.26-.57-.57-.86-.69-.6-.23-1.18-.27-1.75-.32-.16-.01-.32-.02-.48-.04.01-.01.03-.03.05-.04.79-.51,4.45-.18,5.23.25.32.18.78.48,1.01.76.27.33.69,1.29.53,1.8Zm-10.57.97l.22-.14c.55-.37,1.78-.59,2.34-.32.7.34,1.21,1.16,1.42,1.83.04.67.04.73-.13,1.24-.2.71-.56,1.15-1.13,1.37-.35.14-1.12.19-1.45-.02l-.04-.03c-.41-.27-.5-.32-.67-.76-.09-.23-.05-.7.02-.91.15-.46.42-.72.8-.78h.04c.32,0,1.08-.01,1.21.23l.08.18s.01.03.02.04c0,.01,0,.03,0,.04.06.26-.07.62-.22.79-.09.1-.21.17-.35.21-.11.03-.2.03-.23,0-.06-.04-.06-.2-.06-.34,0-.04,0-.09,0-.13v-.11s-.12-.01-.12-.01c-.27-.03-.35.13-.38.21-.08.25.11.67.31.78.39.24.92,0,1.16-.2.32-.26.32-.71.3-1.12-.02-.39-.29-.8-.71-1.05-.4-.24-.85-.29-1.2-.12-.33.15-.36.18-.53.32-.05.04-.1.09-.18.15-.05.04-.09.06-.13.09-.19.13-.27.2-.34.48-.32,1.29-.02,2.02,1.06,2.54.58.28,1.32.24,2.13-.11.34-.15.54-.45.71-.72.04-.06.08-.12.12-.18.25-.37.33-.64.38-.83.04-.16.06-.19.1-.2.24-.04.4,0,.58.04.1.03.2.05.32.07,1.41.15,2.38-1.01,2.6-2.19l.04-.03s.04-.03.04-.03c0,0,.03,0,.1.02.04.01.08.02.12.04.37.12.98.32,1.42.17.88-.34,1.3-1.01,1.23-2-.02-.36-.15-.71-.26-.97.43.42,1.16,1.21,1.26,1.39.14.25.41,1.21.46,1.68-.24,0-.47-.02-.69-.03-.37-.03-.75-.06-1.18,0-.68.09-.95.21-1.52.48l-.07.03c-.67.31-.93.53-1.28.83-.15.13-.32.27-.55.44-.35.27-.7.58-1.08.91-.87.77-1.76,1.56-2.74,1.86-.82.25-1.84.23-2.6-.06-.06-.02-.1-.04-.14-.05-.07-.03-.12-.04-.22-.09-.42-.2-1.1-.66-1.18-.87-.04-.09-.05-.37-.05-.76,0-.13,0-.26,0-.4-.03-1.1-.05-2.15.86-2.89Zm-.44,5.28s.04-.02.07-.02c.03,0,.07,0,.09.01.01,0,.05.02.09.05h.01c.14.09.28.17.42.26.54.35,2.06.31,2.69.2,1.01-.18,1.89-.61,2.63-1.27.27-.24.52-.44.75-.63.23-.18.44-.35.64-.54l.09-.08c1.23-1.12,2.2-2,4.03-2.01,1.46,0,1.49.11,1.63.67v.03c.06.2.05.43.04.61-.16.02-.35,0-.53,0-.13,0-.26-.02-.38-.01-1.66.03-2.37.48-3.51,1.43-1.41,1.3-4.02,3.72-6.61,3.15-.13-.03-.26-.05-.38-.08-.89-.18-1.33-.27-1.71-1.21-.12-.29-.13-.51-.08-.57Z"/></g></g></svg>