<?xml version="1.0" encoding="UTF-8"?><svg id="a" xmlns="http://www.w3.org/2000/svg" viewBox="0 0 30 32"><defs><style>.c{fill:#fff;}.d{fill:#2c3e50;}</style></defs><g><path class="c" d="m15,29.79c-4.03-3.51-11.88-11.38-11.88-16.41C3.12,6.83,8.45,1.5,15,1.5s11.88,5.33,11.88,11.88c0,5.04-7.85,12.9-11.88,16.41Z"/><path d="m15,3c5.72,0,10.38,4.66,10.38,10.38,0,3.61-5.57,10.06-10.38,14.41-4.81-4.35-10.38-10.8-10.38-14.41,0-5.72,4.66-10.38,10.38-10.38M15,0C7.61,0,1.62,5.99,1.62,13.38h0c0,7.39,13.38,18.38,13.38,18.38,0,0,13.38-10.99,13.38-18.38h0C28.38,5.99,22.39,0,15,0h0Z"/></g><path class="d" d="m8.06,13.41h0c0-3.84,3.11-6.94,6.94-6.94h0c3.84,0,6.94,3.11,6.94,6.94h0c0,3.84-6.94,9.54-6.94,9.54h0s-6.94-5.7-6.94-9.54Z"/></svg>